<?xml version="1.0" encoding="UTF-8"?>
<svg id="Ebene_1" xmlns="http://www.w3.org/2000/svg" viewBox="0 0 402.12 65.08"><defs><style>.cls-1{fill:#787c63;}.cls-1,.cls-2,.cls-3{stroke-width:0px;}.cls-2{fill:#c6c6c6;}.cls-3{fill:#b2b2b2;}</style></defs><polygon class="cls-3" points="99.71 19.79 55.32 19.79 55.32 28.77 77.6 28.77 77.59 65.09 87.3 65.09 87.3 28.77 99.71 28.77 99.71 19.79"/><path class="cls-3" d="m52.17,37.88h-25.18c-1.71,0-3.19-.42-4.39-1.24-1.19-.81-1.51-1.67-1.51-3.16s.58-2.6,1.78-3.41c1.19-.87,2.62-1.29,4.38-1.29h22.19v-8.97h-22.19c-4.68,0-8.65,1.21-11.79,3.55-3.39,2.49-5.11,5.88-5.11,10.07s1.46,7.36,4.84,9.86c3.1,2.35,7.07,3.53,11.8,3.53h25.18c2.49,0,9.87.02,9.87,4.37,0,5.02-7.05,5.09-9.6,5.09H11.7l.11,8.83h40.73c5.25,0,9.53-1.23,12.94-3.86,3.64-2.76,5.49-6.55,5.49-11.26,0-11.5-13.61-12.1-18.8-12.1Z"/><polygon class="cls-1" points="123.06 28.76 123.03 37.76 93.29 37.76 93.26 46.83 123.03 46.83 123.03 65.09 132.63 65.09 132.63 19.78 105.43 19.78 105.43 28.77 123.06 28.76"/><path class="cls-1" d="m182.56,46.76c4.02,0,12.54-4.49,13.37-12.28h-10c-.94,3.21-5.74,3.14-12.13,3.24h-20.12l-.03,8.97h18.62l14.98,18.42h10.49s-15.19-18.35-15.19-18.35Z"/><polygon class="cls-1" points="138.46 19.82 138.46 65.09 148.01 65.09 148.01 28.76 173.65 28.77 173.67 19.79 138.46 19.82"/><path class="cls-3" d="m268.18,42.23s7.12-1.91,7.12-10.2c0-6.9-2.99-12.26-19.79-12.26h-20.87s.01,8.97.01,8.97l24.97.02c2.38,0,7.9-.34,7.9,4.48,0,4.45-5.4,4.45-7.81,4.54h-25.01l.04,8.95h24.88c2.5,0,7.99,0,7.99,4.93,0,5.72-5.49,5.11-7.99,5.11h-30.45v-22.27h-8.57v30.58h38.88c11.17,0,15.82-6.53,15.82-12.66,0-9.56-7.12-10.2-7.12-10.2Z"/><path class="cls-3" d="m329.89,58.49c-4.31,4.38-9.76,6.56-16.39,6.56h-12.68c-6.57,0-12.01-2.19-16.33-6.56-4.31-4.37-6.5-9.87-6.5-16.56s2.12-11.99,6.37-16.03c4.32-4.04,9.76-6.09,16.46-6.09h12.68c6.7,0,12.21,2.05,16.46,6.09,4.25,4.04,6.37,9.41,6.37,16.03s-2.12,12.19-6.44,16.56Zm-5.57-26.64c-2.85-2.78-6.44-4.17-10.82-4.17h-12.68c-4.31,0-7.9,1.39-10.69,4.17-2.85,2.78-4.25,6.36-4.25,10.73s1.39,7.82,4.18,10.54c2.85,2.72,6.44,4.04,10.75,4.04h12.68c4.38,0,7.96-1.33,10.75-4.04,2.85-2.72,4.25-6.23,4.25-10.54s-1.39-7.95-4.18-10.73Z"/><path class="cls-3" d="m374.46,65.09l-16.11-17.7-16.05,17.7h-11.43l22.2-23.8-22.2-21.52h11.03l16.45,15.49,16.45-15.49h11.1l-22.26,21.52,22.26,23.8h-11.43Z"/><polygon class="cls-1" points="229.06 19.79 180.71 19.82 180.67 28.77 202.74 28.77 202.74 65.08 212.46 65.08 212.46 28.77 229.06 28.77 229.06 19.79"/><path class="cls-2" d="m397.05,11.02c.57.24,1.06.57,1.47.99.42.42.74.92.98,1.47.24.58.36,1.18.36,1.83s-.12,1.27-.36,1.84c-.24.55-.56,1.05-.98,1.46-.41.41-.9.76-1.47.99-.57.24-1.18.36-1.84.36s-1.27-.12-1.84-.36c-.56-.23-1.05-.57-1.47-.99-.41-.41-.74-.91-.98-1.46-.24-.56-.36-1.18-.36-1.84s.11-1.25.36-1.83c.24-.56.56-1.05.98-1.47.42-.42.91-.75,1.47-.99.58-.24,1.19-.36,1.84-.36s1.27.12,1.84.36Zm-3.41.62c-.47.2-.89.49-1.24.85-.35.36-.63.78-.82,1.26-.2.48-.3,1-.3,1.57s.11,1.07.3,1.56c.19.48.47.91.82,1.27.35.36.76.64,1.24.84.48.21,1,.32,1.57.32s1.08-.11,1.57-.32c.47-.21.88-.49,1.24-.84.36-.36.62-.78.83-1.27.2-.48.29-1.01.29-1.56s-.09-1.08-.29-1.57c-.2-.48-.47-.9-.83-1.26-.35-.36-.77-.65-1.24-.85-.48-.21-1-.32-1.57-.32s-1.09.11-1.57.32Zm-.11,6.35v-5.36h2.05c.62,0,1.05.13,1.33.39.27.25.42.61.42,1.09,0,.23-.04.43-.11.6-.07.18-.17.33-.29.45-.13.12-.26.22-.43.29-.16.07-.33.12-.51.16l1.59,2.38h-.77l-1.51-2.38h-1.11v2.38h-.67Zm2.13-2.96c.2-.01.37-.06.52-.11.14-.06.27-.15.36-.28.1-.13.13-.3.13-.53,0-.19-.04-.34-.11-.46-.07-.12-.16-.21-.28-.29-.12-.06-.26-.11-.41-.14-.15-.02-.3-.03-.47-.03h-1.21v1.85h.87c.2,0,.4,0,.59-.01Z"/></svg>